<?xml version="1.0" encoding="UTF-8"?>
<svg width="32" height="32" viewBox="0 0 32 32" fill="none" xmlns="http://www.w3.org/2000/svg">
  <rect width="32" height="32" rx="8" fill="#1E293B"/>
  <path d="M16 8C12.6863 8 10 10.6863 10 14C10 15.5913 10.6321 17.0374 11.6667 18.0833C10.5 19.1667 9.66667 20.6667 9.66667 22.3333C9.66667 24.5 11.5 26.3333 13.6667 26.3333H18.3333C20.5 26.3333 22.3333 24.5 22.3333 22.3333C22.3333 20.6667 21.5 19.1667 20.3333 18.0833C21.3679 17.0374 22 15.5913 22 14C22 10.6863 19.3137 8 16 8Z" fill="#F97316"/>
  <path d="M16 12C14.8954 12 14 12.8954 14 14C14 15.1046 14.8954 16 16 16C17.1046 16 18 15.1046 18 14C18 12.8954 17.1046 12 16 12Z" fill="#1E293B"/>
  <path d="M12 14L14 14M18 14L20 14M14 12L14 10M14 16L14 18M18 12L18 10M18 16L18 18" stroke="#F97316" stroke-width="1.5" stroke-linecap="round"/>
</svg> 